<svg width="217" height="91" viewBox="0 0 217 91" fill="none" xmlns="http://www.w3.org/2000/svg">
<path d="M59.512 49.664C59.032 49.408 58.52 49.16 57.976 48.92C57.432 48.68 56.936 48.408 56.488 48.104C56.04 47.8 55.664 47.456 55.36 47.072C55.072 46.672 54.928 46.184 54.928 45.608C54.928 45.208 55.032 44.84 55.24 44.504C55.464 44.168 55.76 43.88 56.128 43.64C56.496 43.384 56.928 43.192 57.424 43.064C57.936 42.92 58.48 42.848 59.056 42.848C59.408 42.848 59.752 42.872 60.088 42.92C60.44 42.952 60.768 43.024 61.072 43.136C61.392 43.232 61.68 43.384 61.936 43.592C62.208 43.784 62.44 44.048 62.632 44.384L62.944 44.888V42.416L62.728 42.776C62.664 42.888 62.56 42.944 62.416 42.944C62.352 42.944 62.304 42.936 62.272 42.92C61.776 42.696 61.248 42.52 60.688 42.392C60.144 42.264 59.608 42.2 59.08 42.2C58.296 42.2 57.568 42.304 56.896 42.512C56.224 42.704 55.648 42.984 55.168 43.352C54.688 43.72 54.312 44.168 54.04 44.696C53.768 45.208 53.632 45.784 53.632 46.424C53.632 46.968 53.784 47.456 54.088 47.888C54.392 48.304 54.776 48.688 55.24 49.04C55.704 49.376 56.216 49.696 56.776 50C57.352 50.288 57.912 50.576 58.456 50.864C58.952 51.12 59.456 51.384 59.968 51.656C60.48 51.912 60.936 52.192 61.336 52.496C61.752 52.784 62.088 53.104 62.344 53.456C62.6 53.792 62.728 54.176 62.728 54.608C62.728 55.216 62.592 55.752 62.32 56.216C62.064 56.664 61.72 57.048 61.288 57.368C60.856 57.672 60.36 57.904 59.8 58.064C59.24 58.224 58.664 58.304 58.072 58.304C57.688 58.304 57.28 58.272 56.848 58.208C56.432 58.144 56.024 58.04 55.624 57.896C55.24 57.736 54.88 57.536 54.544 57.296C54.208 57.04 53.936 56.736 53.728 56.384L53.2 55.496V57.968L53.368 57.704C53.432 57.592 53.536 57.536 53.68 57.536C53.776 57.536 53.856 57.56 53.92 57.608C54.672 58.2 55.4 58.576 56.104 58.736C56.824 58.896 57.48 58.976 58.072 58.976C58.856 58.976 59.608 58.872 60.328 58.664C61.064 58.44 61.704 58.136 62.248 57.752C62.808 57.368 63.248 56.912 63.568 56.384C63.904 55.84 64.072 55.248 64.072 54.608C64.072 53.888 63.936 53.288 63.664 52.808C63.408 52.312 63.064 51.88 62.632 51.512C62.2 51.144 61.712 50.816 61.168 50.528C60.64 50.24 60.096 49.944 59.536 49.64L59.512 49.664ZM79.2576 44.288H66.5856L66.4656 46.136L66.7776 45.56C66.8896 45.352 67.0416 45.192 67.2336 45.08C67.4416 44.952 67.6576 44.888 67.8816 44.888H72.3696V57.656C72.3696 57.928 72.2896 58.176 72.1296 58.4C71.9856 58.608 71.7936 58.76 71.5536 58.856L71.2176 58.976H74.6256L74.2896 58.856C74.0496 58.76 73.8496 58.608 73.6896 58.4C73.5456 58.176 73.4736 57.928 73.4736 57.656V44.888H77.9616C78.1856 44.888 78.3936 44.952 78.5856 45.08C78.7936 45.192 78.9536 45.352 79.0656 45.56L79.3776 46.136L79.2576 44.288ZM85.0484 46.52L87.6404 52.496H82.4804L85.0484 46.52ZM89.1044 59H92.5124L92.2724 58.904C91.7284 58.696 91.3604 58.336 91.1684 57.824L85.3604 44.288L79.6004 57.752C79.4244 58.216 79.1044 58.56 78.6404 58.784L78.1604 59H80.9444L80.4644 58.784C80.3044 58.704 80.1924 58.592 80.1284 58.448C80.0644 58.288 80.0644 58.128 80.1284 57.968L82.2404 53.096H87.9044L90.0164 57.968C90.0804 58.144 90.0724 58.312 89.9924 58.472C89.9284 58.616 89.8084 58.72 89.6324 58.784H89.6804L89.1044 59ZM96.5648 51.392V44.864H99.5888C100.101 44.864 100.597 44.904 101.077 44.984C101.557 45.064 101.981 45.224 102.349 45.464C102.717 45.688 103.013 46.016 103.237 46.448C103.461 46.864 103.573 47.424 103.573 48.128C103.573 48.832 103.461 49.4 103.237 49.832C103.013 50.248 102.717 50.576 102.349 50.816C101.981 51.04 101.557 51.192 101.077 51.272C100.597 51.352 100.101 51.392 99.5888 51.392H96.5648ZM106.117 58.808C105.669 58.632 105.333 58.336 105.109 57.92C104.677 57.136 104.269 56.384 103.885 55.664C103.725 55.36 103.557 55.048 103.381 54.728C103.205 54.408 103.037 54.096 102.877 53.792C102.717 53.488 102.565 53.208 102.421 52.952C102.277 52.696 102.157 52.48 102.061 52.304C102.029 52.224 101.973 52.136 101.893 52.04C101.813 51.928 101.717 51.856 101.605 51.824C102.229 51.712 102.741 51.536 103.141 51.296C103.541 51.056 103.853 50.776 104.077 50.456C104.317 50.12 104.477 49.76 104.557 49.376C104.653 48.976 104.701 48.56 104.701 48.128C104.701 47.6 104.629 47.104 104.485 46.64C104.341 46.16 104.077 45.744 103.693 45.392C103.325 45.04 102.813 44.768 102.157 44.576C101.501 44.368 100.653 44.264 99.6128 44.264H94.3328L94.6688 44.384C94.9088 44.48 95.1008 44.64 95.2448 44.864C95.4048 45.072 95.4848 45.312 95.4848 45.584V57.68C95.4848 57.952 95.4048 58.2 95.2448 58.424C95.1008 58.632 94.9088 58.784 94.6688 58.88L94.3328 59H97.7408L97.4048 58.88C97.1648 58.784 96.9648 58.632 96.8048 58.424C96.6608 58.2 96.5888 57.952 96.5888 57.68V52.016H99.9728C100.389 52.016 100.701 52.2 100.909 52.568L104.413 58.976H106.621L106.117 58.808ZM127.669 42.2H117.325L117.709 42.344C117.981 42.456 118.197 42.632 118.357 42.872C118.533 43.112 118.621 43.384 118.621 43.688V57.488C118.621 57.792 118.533 58.064 118.357 58.304C118.197 58.544 117.981 58.72 117.709 58.832L117.325 58.976H121.237L120.853 58.832C120.581 58.72 120.357 58.544 120.181 58.304C120.021 58.064 119.941 57.792 119.941 57.488V50.504H123.949C124.237 50.504 124.493 50.584 124.717 50.744C124.957 50.888 125.141 51.088 125.269 51.344L125.413 51.68V48.8L125.269 49.136C125.141 49.392 124.957 49.6 124.717 49.76C124.493 49.904 124.237 49.976 123.949 49.976H119.941V42.848H126.229C126.501 42.848 126.741 42.92 126.949 43.064C127.173 43.192 127.349 43.368 127.477 43.592L127.837 44.264L127.669 42.2ZM132.472 57.68V45.584C132.472 45.312 132.544 45.072 132.688 44.864C132.848 44.64 133.048 44.48 133.288 44.384L133.624 44.264H130.216L130.552 44.384C130.792 44.48 130.984 44.64 131.128 44.864C131.288 45.072 131.368 45.312 131.368 45.584V57.68C131.368 57.952 131.288 58.2 131.128 58.424C130.984 58.632 130.792 58.784 130.552 58.88L130.216 59H133.624L133.288 58.88C133.048 58.784 132.848 58.632 132.688 58.424C132.544 58.2 132.472 57.952 132.472 57.68ZM146.564 44.288L146.924 44.456C147.148 44.568 147.324 44.728 147.452 44.936C147.596 45.144 147.668 45.368 147.668 45.608V56.456L138.116 44.312H136.028L136.388 44.48C136.612 44.592 136.788 44.752 136.916 44.96C137.06 45.168 137.132 45.392 137.132 45.632V57.728C137.132 57.968 137.06 58.192 136.916 58.4C136.788 58.608 136.612 58.768 136.388 58.88L136.028 59.048H138.812L138.452 58.88C138.228 58.768 138.044 58.608 137.9 58.4C137.772 58.192 137.708 57.968 137.708 57.728V45.632L148.244 59.048V45.656C148.244 45.416 148.308 45.192 148.436 44.984C148.58 44.776 148.764 44.616 148.988 44.504L149.348 44.336L146.564 44.288ZM154.011 58.4V44.888H158.019C159.075 44.888 159.987 45.056 160.755 45.392C161.523 45.712 162.163 46.176 162.675 46.784C163.187 47.376 163.563 48.088 163.803 48.92C164.059 49.736 164.187 50.648 164.187 51.656C164.187 52.664 164.059 53.584 163.803 54.416C163.563 55.232 163.187 55.944 162.675 56.552C162.163 57.144 161.523 57.608 160.755 57.944C159.987 58.264 159.075 58.424 158.019 58.424V58.4H154.011ZM151.755 44.288L152.091 44.408C152.331 44.504 152.523 44.664 152.667 44.888C152.827 45.096 152.907 45.336 152.907 45.608V57.704C152.907 57.976 152.827 58.224 152.667 58.448C152.523 58.656 152.331 58.808 152.091 58.904L151.755 59.024H158.019C159.299 59.024 160.395 58.832 161.307 58.448C162.219 58.064 162.971 57.544 163.563 56.888C164.171 56.232 164.611 55.456 164.883 54.56C165.171 53.648 165.315 52.68 165.315 51.656C165.315 50.6 165.171 49.624 164.883 48.728C164.611 47.832 164.171 47.056 163.563 46.4C162.971 45.728 162.219 45.208 161.307 44.84C160.395 44.472 159.299 44.288 158.019 44.288H151.755ZM177.196 57.536C176.812 58.096 176.276 58.376 175.588 58.376H169.948V51.56H173.476C173.732 51.56 173.964 51.632 174.172 51.776C174.38 51.904 174.54 52.08 174.652 52.304L174.796 52.592V50.072L174.652 50.36C174.54 50.584 174.38 50.768 174.172 50.912C173.964 51.04 173.732 51.104 173.476 51.104H169.948V44.864H175.444C175.668 44.864 175.876 44.928 176.068 45.056C176.276 45.168 176.436 45.328 176.548 45.536L176.86 46.112L176.74 44.264H167.668L168.004 44.384C168.244 44.48 168.436 44.64 168.58 44.864C168.74 45.072 168.82 45.312 168.82 45.584V57.68C168.82 57.952 168.74 58.2 168.58 58.424C168.436 58.632 168.244 58.784 168.004 58.88L167.668 59H177.124L177.796 56.552L177.196 57.536ZM182.487 51.392V44.864H185.511C186.023 44.864 186.519 44.904 186.999 44.984C187.479 45.064 187.903 45.224 188.271 45.464C188.639 45.688 188.935 46.016 189.159 46.448C189.383 46.864 189.495 47.424 189.495 48.128C189.495 48.832 189.383 49.4 189.159 49.832C188.935 50.248 188.639 50.576 188.271 50.816C187.903 51.04 187.479 51.192 186.999 51.272C186.519 51.352 186.023 51.392 185.511 51.392H182.487ZM192.039 58.808C191.591 58.632 191.255 58.336 191.031 57.92C190.599 57.136 190.191 56.384 189.807 55.664C189.647 55.36 189.479 55.048 189.303 54.728C189.127 54.408 188.959 54.096 188.799 53.792C188.639 53.488 188.487 53.208 188.343 52.952C188.199 52.696 188.079 52.48 187.983 52.304C187.951 52.224 187.895 52.136 187.815 52.04C187.735 51.928 187.639 51.856 187.527 51.824C188.151 51.712 188.663 51.536 189.063 51.296C189.463 51.056 189.775 50.776 189.999 50.456C190.239 50.12 190.399 49.76 190.479 49.376C190.575 48.976 190.623 48.56 190.623 48.128C190.623 47.6 190.551 47.104 190.407 46.64C190.263 46.16 189.999 45.744 189.615 45.392C189.247 45.04 188.735 44.768 188.079 44.576C187.423 44.368 186.575 44.264 185.535 44.264H180.255L180.591 44.384C180.831 44.48 181.023 44.64 181.167 44.864C181.327 45.072 181.407 45.312 181.407 45.584V57.68C181.407 57.952 181.327 58.2 181.167 58.424C181.023 58.632 180.831 58.784 180.591 58.88L180.255 59H183.663L183.327 58.88C183.087 58.784 182.887 58.632 182.727 58.424C182.583 58.2 182.511 57.952 182.511 57.68V52.016H185.895C186.311 52.016 186.623 52.2 186.831 52.568L190.335 58.976H192.543L192.039 58.808Z" fill="white"/>
<path d="M59.512 49.664L58.8061 50.9875L59.7868 51.5105L60.5727 50.7247L59.512 49.664ZM57.976 48.92L57.3705 50.2924L57.3705 50.2924L57.976 48.92ZM55.36 47.072L54.1427 47.9485L54.1627 47.9762L54.1839 48.0031L55.36 47.072ZM55.24 44.504L53.9919 43.6719L53.9779 43.693L53.9646 43.7145L55.24 44.504ZM56.128 43.64L56.9474 44.8964L56.9662 44.8842L56.9846 44.8714L56.128 43.64ZM57.424 43.064L57.7988 44.5164L57.8145 44.5124L57.8301 44.508L57.424 43.064ZM60.088 42.92L59.8759 44.4049L59.9139 44.4104L59.9522 44.4138L60.088 42.92ZM61.072 43.136L60.5534 44.5435L60.5968 44.5595L60.641 44.5727L61.072 43.136ZM61.936 43.592L60.9901 44.7562L61.0295 44.7882L61.071 44.8175L61.936 43.592ZM62.632 44.384L61.3296 45.1282L61.3427 45.1511L61.3566 45.1735L62.632 44.384ZM62.944 44.888L61.6686 45.6775L64.444 50.1609V44.888H62.944ZM62.944 42.416H64.444V37.0005L61.6578 41.6443L62.944 42.416ZM62.728 42.776L61.4418 42.0043L61.4336 42.0179L61.4256 42.0318L62.728 42.776ZM62.272 42.92L62.9428 41.5784L62.9164 41.5651L62.8894 41.5529L62.272 42.92ZM60.688 42.392L60.3444 43.8522L60.3538 43.8543L60.688 42.392ZM56.896 42.512L57.3081 43.9543L57.3239 43.9498L57.3395 43.9449L56.896 42.512ZM55.168 43.352L54.2554 42.1616L54.2554 42.1616L55.168 43.352ZM54.04 44.696L55.3647 45.3997L55.3691 45.3914L55.3735 45.3829L54.04 44.696ZM54.088 47.888L52.8613 48.7512L52.869 48.7622L52.8769 48.773L54.088 47.888ZM55.24 49.04L54.3334 50.235L54.3467 50.2451L54.3602 50.2549L55.24 49.04ZM56.776 50L56.0604 51.3183L56.0826 51.3303L56.1052 51.3416L56.776 50ZM58.456 50.864L57.7542 52.1897L57.7611 52.1933L57.768 52.1969L58.456 50.864ZM59.968 51.656L59.2643 52.9807L59.2806 52.9894L59.2972 52.9976L59.968 51.656ZM61.336 52.496L60.4284 53.6902L60.4548 53.7104L60.4822 53.7293L61.336 52.496ZM62.344 53.456L61.1309 54.3383L61.1407 54.3518L61.1509 54.3651L62.344 53.456ZM62.32 56.216L61.026 55.4574L61.0218 55.4646L61.0176 55.4718L62.32 56.216ZM61.288 57.368L62.1512 58.5947L62.1662 58.5842L62.1808 58.5733L61.288 57.368ZM59.8 58.064L60.2121 59.5063L60.2121 59.5063L59.8 58.064ZM56.848 58.208L56.6199 59.6906L56.6282 59.6918L56.848 58.208ZM55.624 57.896L55.0471 59.2806L55.0812 59.2948L55.1159 59.3073L55.624 57.896ZM54.544 57.296L53.6349 58.4891L53.6533 58.5032L53.6721 58.5166L54.544 57.296ZM53.728 56.384L55.0194 55.6209L55.0173 55.6174L53.728 56.384ZM53.2 55.496L54.4893 54.7294L51.7 50.0383V55.496H53.2ZM53.2 57.968H51.7V63.1191L54.4655 58.7733L53.2 57.968ZM53.368 57.704L54.6335 58.5093L54.6527 58.4792L54.6704 58.4482L53.368 57.704ZM53.92 57.608L54.8478 56.4294L54.834 56.4185L54.82 56.408L53.92 57.608ZM56.104 58.736L55.7716 60.1987L55.7786 60.2003L56.104 58.736ZM60.328 58.664L60.7443 60.1051L60.7545 60.1021L60.7647 60.099L60.328 58.664ZM62.248 57.752L61.3997 56.5149L61.3913 56.5207L61.383 56.5265L62.248 57.752ZM63.568 56.384L62.2918 55.5957L62.2852 55.6065L63.568 56.384ZM63.664 52.808L62.3311 53.496L62.3445 53.522L62.359 53.5475L63.664 52.808ZM61.168 50.528L60.4497 51.8448L60.4579 51.8493L60.4662 51.8537L61.168 50.528ZM59.536 49.64L60.2516 48.3217L59.2673 47.7874L58.4753 48.5793L59.536 49.64ZM60.2179 48.3405C59.7022 48.0654 59.1564 47.8013 58.5815 47.5476L57.3705 50.2924C57.8836 50.5187 58.3618 50.7506 58.8061 50.9875L60.2179 48.3405ZM58.5815 47.5476C58.1122 47.3406 57.6966 47.1113 57.3303 46.8628L55.6457 49.3452C56.1754 49.7047 56.7518 50.0194 57.3705 50.2924L58.5815 47.5476ZM57.3303 46.8628C56.9955 46.6356 56.7358 46.3933 56.5361 46.1409L54.1839 48.0031C54.5922 48.5187 55.0845 48.9644 55.6457 49.3452L57.3303 46.8628ZM56.5773 46.1955C56.5027 46.0919 56.428 45.9242 56.428 45.608H53.428C53.428 46.4438 53.6413 47.2521 54.1427 47.9485L56.5773 46.1955ZM56.428 45.608C56.428 45.4833 56.4561 45.3893 56.5154 45.2935L53.9646 43.7145C53.6079 44.2907 53.428 44.9327 53.428 45.608H56.428ZM56.4881 45.3361C56.5898 45.1835 56.7345 45.0353 56.9474 44.8964L55.3086 42.3836C54.7855 42.7247 54.3382 43.1525 53.9919 43.6719L56.4881 45.3361ZM56.9846 44.8714C57.1871 44.7305 57.451 44.6062 57.7988 44.5164L57.0492 41.6116C56.405 41.7778 55.8049 42.0375 55.2714 42.4086L56.9846 44.8714ZM57.8301 44.508C58.1995 44.4041 58.606 44.348 59.056 44.348V41.348C58.354 41.348 57.6725 41.4359 57.0179 41.62L57.8301 44.508ZM59.056 44.348C59.3396 44.348 59.6127 44.3673 59.8759 44.4049L60.3001 41.4351C59.8913 41.3767 59.4764 41.348 59.056 41.348V44.348ZM59.9522 44.4138C60.1852 44.435 60.3833 44.4808 60.5534 44.5435L61.5906 41.7285C61.1527 41.5672 60.6948 41.469 60.2238 41.4262L59.9522 44.4138ZM60.641 44.5727C60.7757 44.6131 60.8883 44.6734 60.9901 44.7562L62.8819 42.4278C62.4717 42.0946 62.0083 41.8509 61.503 41.6993L60.641 44.5727ZM61.071 44.8175C61.1369 44.864 61.2289 44.9519 61.3296 45.1282L63.9344 43.6398C63.6511 43.1441 63.2791 42.704 62.801 42.3665L61.071 44.8175ZM61.3566 45.1735L61.6686 45.6775L64.2194 44.0985L63.9074 43.5945L61.3566 45.1735ZM64.444 44.888V42.416H61.444V44.888H64.444ZM61.6578 41.6443L61.4418 42.0043L64.0142 43.5477L64.2302 43.1877L61.6578 41.6443ZM61.4256 42.0318C61.5196 41.8674 61.6731 41.6985 61.8908 41.5813C62.1004 41.4685 62.2936 41.444 62.416 41.444V44.444C63.0225 44.444 63.6637 44.1618 64.0304 43.5202L61.4256 42.0318ZM62.416 41.444C62.4425 41.444 62.5003 41.4454 62.5786 41.4584C62.6528 41.4708 62.7867 41.5003 62.9428 41.5784L61.6012 44.2616C61.9466 44.4344 62.2754 44.444 62.416 44.444V41.444ZM62.8894 41.5529C62.2975 41.2857 61.6742 41.0787 61.0222 40.9297L60.3538 43.8543C60.8218 43.9613 61.2545 44.1063 61.6546 44.2871L62.8894 41.5529ZM61.0316 40.9319C60.3815 40.7789 59.7302 40.7 59.08 40.7V43.7C59.4858 43.7 59.9065 43.7491 60.3444 43.8521L61.0316 40.9319ZM59.08 40.7C58.1626 40.7 57.2835 40.8218 56.4525 41.0791L57.3395 43.9449C57.8525 43.7862 58.4294 43.7 59.08 43.7V40.7ZM56.4839 41.0697C55.6585 41.3055 54.9063 41.6626 54.2554 42.1616L56.0806 44.5424C56.3897 44.3054 56.7895 44.1025 57.3081 43.9543L56.4839 41.0697ZM54.2554 42.1616C53.603 42.6618 53.0818 43.2805 52.7065 44.0091L55.3735 45.3829C55.5422 45.0555 55.773 44.7782 56.0806 44.5424L54.2554 42.1616ZM52.7153 43.9923C52.3166 44.7428 52.132 45.5646 52.132 46.424H55.132C55.132 46.0034 55.2194 45.6732 55.3647 45.3997L52.7153 43.9923ZM52.132 46.424C52.132 47.2672 52.3739 48.0586 52.8613 48.7512L55.3147 47.0248C55.1941 46.8534 55.132 46.6688 55.132 46.424H52.132ZM52.8769 48.773C53.2772 49.3208 53.7683 49.8063 54.3334 50.235L56.1466 47.845C55.7837 47.5697 55.5068 47.2872 55.2991 47.003L52.8769 48.773ZM54.3602 50.2549C54.8821 50.6328 55.4497 50.9868 56.0604 51.3183L57.4916 48.6817C56.9823 48.4052 56.5259 48.1192 56.1198 47.8251L54.3602 50.2549ZM56.1052 51.3416C56.6713 51.6247 57.2209 51.9074 57.7542 52.1897L59.1578 49.5383C58.6031 49.2446 58.0327 48.9513 57.4468 48.6584L56.1052 51.3416ZM57.768 52.1969C58.2586 52.4501 58.7573 52.7114 59.2643 52.9807L60.6717 50.3313C60.1547 50.0566 59.6454 49.7899 59.144 49.5311L57.768 52.1969ZM59.2972 52.9976C59.7371 53.2176 60.112 53.4498 60.4284 53.6902L62.2436 51.3018C61.76 50.9342 61.2229 50.6064 60.6388 50.3144L59.2972 52.9976ZM60.4822 53.7293C60.7816 53.9366 60.9887 54.1428 61.1309 54.3383L63.5571 52.5737C63.1873 52.0652 62.7224 51.6314 62.1898 51.2627L60.4822 53.7293ZM61.1509 54.3651C61.203 54.4335 61.228 54.4964 61.228 54.608H64.228C64.228 53.8556 63.997 53.1505 63.5371 52.5469L61.1509 54.3651ZM61.228 54.608C61.228 54.9848 61.1462 55.2523 61.026 55.4574L63.614 56.9746C64.0378 56.2517 64.228 55.4472 64.228 54.608H61.228ZM61.0176 55.4718C60.8691 55.7318 60.6673 55.9611 60.3952 56.1627L62.1808 58.5733C62.7727 58.1349 63.2589 57.5962 63.6224 56.9602L61.0176 55.4718ZM60.4248 56.1413C60.1434 56.3393 59.803 56.5031 59.3879 56.6217L60.2121 59.5063C60.917 59.3049 61.5686 59.0047 62.1512 58.5947L60.4248 56.1413ZM59.3879 56.6217C58.9641 56.7428 58.5269 56.804 58.072 56.804V59.804C58.8011 59.804 59.5159 59.7052 60.2121 59.5063L59.3879 56.6217ZM58.072 56.804C57.7708 56.804 57.4367 56.7788 57.0678 56.7242L56.6282 59.6918C57.1233 59.7652 57.6052 59.804 58.072 59.804V56.804ZM57.0761 56.7254C56.7565 56.6763 56.4422 56.5963 56.1321 56.4847L55.1159 59.3073C55.6058 59.4837 56.1075 59.6117 56.6199 59.6906L57.0761 56.7254ZM56.2009 56.5114C55.9203 56.3945 55.6593 56.2493 55.4159 56.0754L53.6721 58.5166C54.1007 58.8227 54.5597 59.0775 55.0471 59.2806L56.2009 56.5114ZM55.4531 56.1029C55.2659 55.9602 55.1256 55.8007 55.0194 55.6209L52.4366 57.1471C52.7464 57.6713 53.1501 58.1198 53.6349 58.4891L55.4531 56.1029ZM55.0173 55.6174L54.4893 54.7294L51.9107 56.2626L52.4387 57.1506L55.0173 55.6174ZM51.7 55.496V57.968H54.7V55.496H51.7ZM54.4655 58.7733L54.6335 58.5093L52.1025 56.8987L51.9345 57.1627L54.4655 58.7733ZM54.6704 58.4482C54.5764 58.6126 54.4229 58.7815 54.2052 58.8987C53.9956 59.0115 53.8024 59.036 53.68 59.036V56.036C53.0735 56.036 52.4323 56.3182 52.0656 56.9598L54.6704 58.4482ZM53.68 59.036C53.5182 59.036 53.2644 58.9913 53.02 58.808L54.82 56.408C54.4476 56.1287 54.0338 56.036 53.68 56.036V59.036ZM52.9922 58.7866C53.8647 59.4735 54.7918 59.976 55.7716 60.1987L56.4364 57.2733C56.0082 57.176 55.4793 56.9265 54.8478 56.4294L52.9922 58.7866ZM55.7786 60.2003C56.5805 60.3785 57.3477 60.476 58.072 60.476V57.476C57.6123 57.476 57.0675 57.4135 56.4294 57.2717L55.7786 60.2003ZM58.072 60.476C58.9903 60.476 59.8829 60.3539 60.7443 60.1051L59.9117 57.2229C59.3331 57.3901 58.7217 57.476 58.072 57.476V60.476ZM60.7647 60.099C61.6305 59.8355 62.4198 59.4668 63.113 58.9775L61.383 56.5265C60.9882 56.8052 60.4975 57.0445 59.8913 57.229L60.7647 60.099ZM63.0963 58.9891C63.8144 58.4966 64.4097 57.8893 64.8508 57.1615L62.2852 55.6065C62.0863 55.9347 61.8016 56.2394 61.3997 56.5149L63.0963 58.9891ZM64.8442 57.1722C65.3267 56.3911 65.572 55.5261 65.572 54.608H62.572C62.572 54.9699 62.4813 55.2889 62.2918 55.5958L64.8442 57.1722ZM65.572 54.608C65.572 53.7057 65.402 52.8326 64.969 52.0685L62.359 53.5475C62.47 53.7434 62.572 54.0703 62.572 54.608H65.572ZM64.9969 52.12C64.65 51.4478 64.1826 50.8624 63.6047 50.3701L61.6593 52.6539C61.9454 52.8976 62.166 53.1762 62.3311 53.496L64.9969 52.12ZM63.6047 50.3701C63.0827 49.9255 62.5025 49.5372 61.8698 49.2023L60.4662 51.8537C60.9215 52.0948 61.3173 52.3625 61.6593 52.6539L63.6047 50.3701ZM61.8863 49.2112C61.3573 48.9226 60.8125 48.6262 60.2516 48.3217L58.8204 50.9583C59.3795 51.2618 59.9227 51.5574 60.4497 51.8448L61.8863 49.2112ZM58.4753 48.5793L58.4513 48.6033L60.5727 50.7247L60.5967 50.7007L58.4753 48.5793ZM79.2576 44.288L80.7545 44.1908L80.6634 42.788H79.2576V44.288ZM66.5856 44.288V42.788H65.1799L65.0888 44.1908L66.5856 44.288ZM66.4656 46.136L64.9688 46.0388L67.7846 46.8504L66.4656 46.136ZM66.7776 45.56L68.0966 46.2744L68.0983 46.2711L66.7776 45.56ZM67.2336 45.08L67.9894 46.3757L68.0047 46.3668L68.0198 46.3575L67.2336 45.08ZM72.3696 44.888H73.8696V43.388H72.3696V44.888ZM72.1296 58.4L70.909 57.5281L70.9026 57.5371L70.8963 57.5462L72.1296 58.4ZM71.5536 58.856L72.0581 60.2686L72.0846 60.2592L72.1107 60.2487L71.5536 58.856ZM71.2176 58.976L70.7131 57.5634L71.2176 60.476V58.976ZM74.6256 58.976V60.476L75.1301 57.5634L74.6256 58.976ZM74.2896 58.856L73.7325 60.2487L73.7586 60.2592L73.7851 60.2686L74.2896 58.856ZM73.6896 58.4L72.4279 59.2111L72.4621 59.2644L72.5007 59.3146L73.6896 58.4ZM73.4736 44.888V43.388H71.9736V44.888H73.4736ZM78.5856 45.08L77.7536 46.3281L77.8123 46.3672L77.8745 46.4007L78.5856 45.08ZM79.0656 45.56L77.7449 46.2712L77.7467 46.2744L79.0656 45.56ZM79.3776 46.136L78.0587 46.8504L80.8745 46.0388L79.3776 46.136ZM79.2576 42.788H66.5856V45.788H79.2576V42.788ZM65.0888 44.1908L64.9688 46.0388L67.9625 46.2332L68.0825 44.3852L65.0888 44.1908ZM67.7846 46.8504L68.0966 46.2744L65.4587 44.8456L65.1467 45.4216L67.7846 46.8504ZM68.0983 46.2711C68.0957 46.2761 68.085 46.2941 68.0631 46.3171C68.0408 46.3406 68.015 46.3608 67.9894 46.3757L66.4778 43.7843C66.0322 44.0443 65.6913 44.4136 65.4569 44.8489L68.0983 46.2711ZM68.0198 46.3575C68.0207 46.3569 68.0064 46.3657 67.9778 46.3742C67.9482 46.3829 67.9147 46.388 67.8816 46.388V43.388C67.3552 43.388 66.8698 43.5426 66.4475 43.8025L68.0198 46.3575ZM67.8816 46.388H72.3696V43.388H67.8816V46.388ZM70.8696 44.888V57.656H73.8696V44.888H70.8696ZM70.8696 57.656C70.8696 57.6426 70.872 57.6167 70.8821 57.5855C70.8921 57.5545 70.9044 57.5347 70.909 57.5281L73.3502 59.2719C73.6896 58.7967 73.8696 58.2446 73.8696 57.656H70.8696ZM70.8963 57.5462C70.9058 57.5325 70.9227 57.5129 70.9466 57.4939C70.9703 57.4752 70.9896 57.4661 70.9965 57.4633L72.1107 60.2487C72.6178 60.0459 73.0475 59.7095 73.3629 59.2538L70.8963 57.5462ZM71.0491 57.4434L70.7131 57.5634L71.7221 60.3886L72.0581 60.2686L71.0491 57.4434ZM71.2176 60.476H74.6256V57.476H71.2176V60.476ZM75.1301 57.5634L74.7941 57.4434L73.7851 60.2686L74.1211 60.3886L75.1301 57.5634ZM74.8467 57.4633C74.8469 57.4634 74.8495 57.4644 74.8536 57.4668C74.8579 57.4691 74.8626 57.4722 74.8673 57.4758C74.8719 57.4793 74.8755 57.4825 74.8778 57.4848C74.88 57.4871 74.8802 57.4876 74.8786 57.4854L72.5007 59.3146C72.822 59.7323 73.2389 60.0513 73.7325 60.2487L74.8467 57.4633ZM74.9514 57.5889C74.9552 57.5947 74.9626 57.6086 74.9681 57.6278C74.9737 57.6468 74.9736 57.658 74.9736 57.656H71.9736C71.9736 58.2091 72.1248 58.7398 72.4279 59.2111L74.9514 57.5889ZM74.9736 57.656V44.888H71.9736V57.656H74.9736ZM73.4736 46.388H77.9616V43.388H73.4736V46.388ZM77.9616 46.388C77.9285 46.388 77.8876 46.3829 77.8445 46.3697C77.8018 46.3565 77.7709 46.3397 77.7536 46.3281L79.4177 43.8319C78.9872 43.5449 78.4911 43.388 77.9616 43.388V46.388ZM77.8745 46.4007C77.8556 46.3906 77.8287 46.3724 77.801 46.3447C77.7733 46.317 77.7551 46.29 77.7449 46.2712L80.3863 44.8488C80.1352 44.3824 79.7632 44.0105 79.2968 43.7593L77.8745 46.4007ZM77.7467 46.2744L78.0587 46.8504L80.6966 45.4216L80.3846 44.8456L77.7467 46.2744ZM80.8745 46.0388L80.7545 44.1908L77.7608 44.3852L77.8808 46.2332L80.8745 46.0388ZM85.0484 46.52L86.4245 45.9231L85.042 42.7356L83.6702 45.9278L85.0484 46.52ZM87.6404 52.496V53.996H89.926L89.0165 51.8991L87.6404 52.496ZM82.4804 52.496L81.1022 51.9038L80.2032 53.996H82.4804V52.496ZM89.1044 59L88.5777 57.5955L89.1044 60.5V59ZM92.5124 59V60.5L93.0695 57.6073L92.5124 59ZM92.2724 58.904L92.8295 57.5113L92.8188 57.507L92.8081 57.5029L92.2724 58.904ZM91.1684 57.824L92.5729 57.2973L92.5606 57.2646L92.5468 57.2325L91.1684 57.824ZM85.3604 44.288L86.7388 43.6965L85.3583 40.4791L83.9813 43.698L85.3604 44.288ZM79.6004 57.752L78.2213 57.162L78.209 57.1908L78.1979 57.22L79.6004 57.752ZM78.6404 58.784L79.2559 60.1519L79.2743 60.1436L79.2925 60.1348L78.6404 58.784ZM78.1604 59L77.5448 57.6321L78.1604 60.5V59ZM80.9444 59V60.5L81.5599 57.6321L80.9444 59ZM80.4644 58.784L79.7936 60.1256L79.8209 60.1393L79.8488 60.1519L80.4644 58.784ZM80.1284 58.448L78.7357 59.0051L78.7462 59.0314L78.7577 59.0572L80.1284 58.448ZM80.1284 57.968L78.7521 57.3714L78.7436 57.391L78.7357 57.4109L80.1284 57.968ZM82.2404 53.096V51.596H81.2557L80.8641 52.4994L82.2404 53.096ZM87.9044 53.096L89.2806 52.4994L88.889 51.596H87.9044V53.096ZM90.0164 57.968L91.4261 57.4554L91.4106 57.4129L91.3926 57.3714L90.0164 57.968ZM89.9924 58.472L88.6507 57.8012L88.6355 57.8317L88.6217 57.8628L89.9924 58.472ZM89.6324 58.784L89.1198 57.3743L89.6324 60.284V58.784ZM89.6804 58.784L90.2071 60.1885L89.6804 57.284V58.784ZM83.6722 47.1169L86.2642 53.0929L89.0165 51.8991L86.4245 45.9231L83.6722 47.1169ZM87.6404 50.996H82.4804V53.996H87.6404V50.996ZM83.8585 53.0882L86.4265 47.1122L83.6702 45.9278L81.1022 51.9038L83.8585 53.0882ZM89.1044 60.5H92.5124V57.5H89.1044V60.5ZM93.0695 57.6073L92.8295 57.5113L91.7153 60.2967L91.9553 60.3927L93.0695 57.6073ZM92.8081 57.5029C92.636 57.4371 92.6032 57.3781 92.5729 57.2973L89.7639 58.3507C90.1176 59.2939 90.8207 59.9549 91.7367 60.3051L92.8081 57.5029ZM92.5468 57.2325L86.7388 43.6965L83.9819 44.8795L89.7899 58.4155L92.5468 57.2325ZM83.9813 43.698L78.2213 57.162L80.9795 58.342L86.7395 44.878L83.9813 43.698ZM78.1979 57.22C78.1637 57.3102 78.1212 57.369 77.9883 57.4332L79.2925 60.1348C80.0875 59.751 80.6851 59.1218 81.0029 58.284L78.1979 57.22ZM78.0248 57.4161L77.5448 57.6321L78.7759 60.3679L79.2559 60.1519L78.0248 57.4161ZM78.1604 60.5H80.9444V57.5H78.1604V60.5ZM81.5599 57.6321L81.0799 57.4161L79.8488 60.1519L80.3288 60.3679L81.5599 57.6321ZM81.1352 57.4424C81.181 57.4653 81.2493 57.5076 81.321 57.5793C81.3945 57.6528 81.4559 57.7417 81.4991 57.8388L78.7577 59.0572C78.9819 59.5618 79.3669 59.9123 79.7936 60.1256L81.1352 57.4424ZM81.5211 57.8909C81.5545 57.9743 81.5804 58.0829 81.5804 58.208C81.5804 58.3331 81.5545 58.4417 81.5211 58.5251L78.7357 57.4109C78.5286 57.9285 78.5286 58.4875 78.7357 59.0051L81.5211 57.8909ZM81.5046 58.5646L83.6166 53.6926L80.8641 52.4994L78.7521 57.3714L81.5046 58.5646ZM82.2404 54.596H87.9044V51.596H82.2404V54.596ZM86.5281 53.6926L88.6401 58.5646L91.3926 57.3714L89.2806 52.4994L86.5281 53.6926ZM88.6067 58.4806C88.5785 58.403 88.5536 58.2906 88.5601 58.1547C88.5666 58.017 88.6034 57.8958 88.6507 57.8012L91.334 59.1428C91.6077 58.5954 91.6234 57.9981 91.4261 57.4554L88.6067 58.4806ZM88.6217 57.8628C88.6798 57.732 88.767 57.6155 88.872 57.5245C88.9728 57.4371 89.0659 57.3939 89.1198 57.3743L90.145 60.1937C90.626 60.0188 91.1027 59.667 91.3631 59.0812L88.6217 57.8628ZM89.6324 60.284H89.6804V57.284H89.6324V60.284ZM89.1537 57.3795L88.5777 57.5955L89.6311 60.4045L90.2071 60.1885L89.1537 57.3795ZM96.5648 51.392H95.0648V52.892H96.5648V51.392ZM96.5648 44.864V43.364H95.0648V44.864H96.5648ZM102.349 45.464L101.529 46.7204L101.549 46.7332L101.569 46.7453L102.349 45.464ZM103.237 46.448L101.905 47.1385L101.911 47.1489L101.916 47.1591L103.237 46.448ZM103.237 49.832L104.558 50.5431L104.563 50.5329L104.568 50.5225L103.237 49.832ZM102.349 50.816L103.129 52.0973L103.149 52.0852L103.168 52.0724L102.349 50.816ZM101.077 51.272L100.83 49.7924L100.83 49.7924L101.077 51.272ZM106.117 58.808L105.568 60.2041L105.605 60.2186L105.642 60.231L106.117 58.808ZM105.109 57.92L106.43 57.2089L106.426 57.2025L106.423 57.1961L105.109 57.92ZM103.885 55.664L102.557 56.3626L102.561 56.3699L103.885 55.664ZM103.381 54.728L102.066 55.4509L102.066 55.4509L103.381 54.728ZM102.877 53.792L101.549 54.4906L101.549 54.4906L102.877 53.792ZM102.421 52.952L101.113 53.6874L101.113 53.6874L102.421 52.952ZM102.061 52.304L100.668 52.8611L100.701 52.9439L100.744 53.0223L102.061 52.304ZM101.893 52.04L100.672 52.9119L100.705 52.9573L100.74 53.0003L101.893 52.04ZM101.605 51.824L101.34 50.3476L101.193 53.2663L101.605 51.824ZM103.141 51.296L103.913 52.5822L103.913 52.5822L103.141 51.296ZM104.077 50.456L102.856 49.5841L102.852 49.59L102.848 49.5958L104.077 50.456ZM104.557 49.376L103.098 49.0259L103.093 49.0479L103.088 49.0701L104.557 49.376ZM104.485 46.64L103.048 47.071L103.05 47.0778L103.052 47.0846L104.485 46.64ZM103.693 45.392L102.656 46.476L102.667 46.487L102.679 46.4977L103.693 45.392ZM102.157 44.576L101.703 46.0058L101.719 46.0109L101.735 46.0156L102.157 44.576ZM94.3328 44.264V42.764L93.8283 45.6766L94.3328 44.264ZM94.6688 44.384L95.2259 42.9913L95.1998 42.9808L95.1733 42.9714L94.6688 44.384ZM95.2448 44.864L93.983 45.6751L94.0173 45.7284L94.0559 45.7786L95.2448 44.864ZM95.2448 58.424L94.0242 57.5521L94.0178 57.5611L94.0115 57.5702L95.2448 58.424ZM94.6688 58.88L95.1733 60.2926L95.1998 60.2832L95.2259 60.2727L94.6688 58.88ZM94.3328 59L93.8283 57.5874L94.3328 60.5V59ZM97.7408 59V60.5L98.2453 57.5874L97.7408 59ZM97.4048 58.88L96.8477 60.2727L96.8738 60.2832L96.9003 60.2926L97.4048 58.88ZM96.8048 58.424L95.543 59.2351L95.5773 59.2884L95.6159 59.3386L96.8048 58.424ZM96.5888 52.016V50.516H95.0888V52.016H96.5888ZM100.909 52.568L102.225 51.8483L102.22 51.8391L102.215 51.8299L100.909 52.568ZM104.413 58.976L103.097 59.6957L103.523 60.476H104.413V58.976ZM106.621 58.976V60.476L107.095 57.553L106.621 58.976ZM98.0648 51.392V44.864H95.0648V51.392H98.0648ZM96.5648 46.364H99.5888V43.364H96.5648V46.364ZM99.5888 46.364C100.022 46.364 100.436 46.3979 100.83 46.4636L101.323 43.5044C100.758 43.4101 100.179 43.364 99.5888 43.364V46.364ZM100.83 46.4636C101.128 46.5132 101.353 46.6052 101.529 46.7204L103.168 44.2076C102.609 43.8428 101.986 43.6148 101.323 43.5044L100.83 46.4636ZM101.569 46.7453C101.673 46.8087 101.791 46.9179 101.905 47.1385L104.568 45.7575C104.235 45.1141 103.761 44.5673 103.129 44.1827L101.569 46.7453ZM101.916 47.1591C101.979 47.2754 102.073 47.56 102.073 48.128H105.073C105.073 47.288 104.943 46.4526 104.558 45.7369L101.916 47.1591ZM102.073 48.128C102.073 48.6916 101.98 48.9967 101.905 49.1415L104.568 50.5225C104.941 49.8033 105.073 48.9724 105.073 48.128H102.073ZM101.916 49.1208C101.802 49.3332 101.672 49.4668 101.529 49.5596L103.168 52.0724C103.762 51.6852 104.224 51.1628 104.558 50.5431L101.916 49.1208ZM101.569 49.5347C101.384 49.6471 101.146 49.7398 100.83 49.7924L101.323 52.7516C101.968 52.6442 102.577 52.4329 103.129 52.0973L101.569 49.5347ZM100.83 49.7924C100.436 49.8581 100.022 49.892 99.5888 49.892V52.892C100.179 52.892 100.758 52.8459 101.323 52.7516L100.83 49.7924ZM99.5888 49.892H96.5648V52.892H99.5888V49.892ZM106.665 57.4119C106.541 57.363 106.482 57.306 106.43 57.2089L103.788 58.6311C104.184 59.366 104.797 59.901 105.568 60.2041L106.665 57.4119ZM106.423 57.1961C105.994 56.4175 105.589 55.6715 105.208 54.9581L102.561 56.3699C102.949 57.0965 103.36 57.8545 103.795 58.6439L106.423 57.1961ZM105.212 54.9654C105.048 54.6528 104.875 54.3327 104.695 54.0051L102.066 55.4509C102.238 55.7633 102.402 56.0672 102.557 56.3626L105.212 54.9654ZM104.695 54.0051C104.523 53.6927 104.36 53.3888 104.204 53.0934L101.549 54.4906C101.714 54.8032 101.886 55.1233 102.066 55.4509L104.695 54.0051ZM104.204 53.0934C104.039 52.779 103.88 52.4866 103.728 52.2166L101.113 53.6874C101.25 53.9294 101.395 54.197 101.549 54.4906L104.204 53.0934ZM103.728 52.2166C103.586 51.9639 103.469 51.754 103.378 51.5857L100.744 53.0223C100.844 53.206 100.968 53.4281 101.113 53.6874L103.728 52.2166ZM103.454 51.7469C103.343 51.471 103.185 51.2472 103.045 51.0797L100.74 53.0003C100.747 53.0084 100.742 53.0027 100.729 52.9833C100.717 52.9645 100.693 52.9234 100.668 52.8611L103.454 51.7469ZM103.113 51.1681C102.873 50.8322 102.512 50.5232 102.017 50.3817L101.193 53.2663C100.922 53.1888 100.752 53.0238 100.672 52.9119L103.113 51.1681ZM101.87 53.3004C102.613 53.1671 103.312 52.9428 103.913 52.5822L102.369 50.0098C102.17 50.1292 101.845 50.2569 101.34 50.3476L101.87 53.3004ZM103.913 52.5822C104.459 52.2546 104.94 51.8389 105.306 51.3162L102.848 49.5958C102.766 49.7131 102.623 49.8574 102.369 50.0098L103.913 52.5822ZM105.297 51.3279C105.652 50.8316 105.901 50.2804 106.025 49.6819L103.088 49.0701C103.053 49.2396 102.982 49.4084 102.856 49.5841L105.297 51.3279ZM106.015 49.7261C106.14 49.2058 106.201 48.672 106.201 48.128H103.201C103.201 48.448 103.165 48.7462 103.098 49.0259L106.015 49.7261ZM106.201 48.128C106.201 47.4623 106.11 46.8153 105.917 46.1954L103.052 47.0846C103.148 47.3927 103.201 47.7377 103.201 48.128H106.201ZM105.922 46.209C105.697 45.4596 105.281 44.8134 104.706 44.2863L102.679 46.4977C102.872 46.6746 102.985 46.8604 103.048 47.071L105.922 46.209ZM104.73 44.308C104.139 43.7429 103.389 43.3738 102.578 43.1364L101.735 46.0156C102.236 46.1622 102.511 46.3371 102.656 46.476L104.73 44.308ZM102.61 43.1462C101.753 42.8744 100.736 42.764 99.6128 42.764V45.764C100.569 45.764 101.249 45.8616 101.703 46.0058L102.61 43.1462ZM99.6128 42.764H94.3328V45.764H99.6128V42.764ZM93.8283 45.6766L94.1643 45.7966L95.1733 42.9714L94.8373 42.8514L93.8283 45.6766ZM94.1117 45.7767C94.0906 45.7683 94.0616 45.7526 94.0325 45.7283C94.0038 45.7044 93.9882 45.6831 93.983 45.6751L96.5066 44.0529C96.1993 43.5749 95.7648 43.2068 95.2259 42.9913L94.1117 45.7767ZM94.0559 45.7786C94.0377 45.7549 94.0167 45.719 94.0018 45.6743C93.9871 45.6303 93.9848 45.5971 93.9848 45.584H96.9848C96.9848 44.9942 96.8032 44.4298 96.4337 43.9494L94.0559 45.7786ZM93.9848 45.584V57.68H96.9848V45.584H93.9848ZM93.9848 57.68C93.9848 57.6666 93.9872 57.6407 93.9972 57.6095C94.0073 57.5785 94.0195 57.5587 94.0242 57.5521L96.4654 59.2959C96.8048 58.8207 96.9848 58.2686 96.9848 57.68H93.9848ZM94.0115 57.5702C94.021 57.5565 94.0379 57.5369 94.0618 57.5179C94.0855 57.4992 94.1047 57.4901 94.1117 57.4873L95.2259 60.2727C95.733 60.0699 96.1627 59.7335 96.4781 59.2778L94.0115 57.5702ZM94.1643 57.4674L93.8283 57.5874L94.8373 60.4126L95.1733 60.2926L94.1643 57.4674ZM94.3328 60.5H97.7408V57.5H94.3328V60.5ZM98.2453 57.5874L97.9093 57.4674L96.9003 60.2926L97.2363 60.4126L98.2453 57.5874ZM97.9619 57.4873C97.9621 57.4874 97.9646 57.4884 97.9688 57.4908C97.973 57.4931 97.9777 57.4962 97.9824 57.4998C97.9871 57.5033 97.9907 57.5065 97.993 57.5088C97.9952 57.5111 97.9954 57.5116 97.9937 57.5094L95.6159 59.3386C95.9372 59.7563 96.3541 60.0753 96.8477 60.2727L97.9619 57.4873ZM98.0666 57.6129C98.0703 57.6187 98.0778 57.6326 98.0833 57.6518C98.0888 57.6708 98.0888 57.682 98.0888 57.68H95.0888C95.0888 58.2331 95.24 58.7638 95.543 59.2351L98.0666 57.6129ZM98.0888 57.68V52.016H95.0888V57.68H98.0888ZM96.5888 53.516H99.9728V50.516H96.5888V53.516ZM99.9728 53.516C99.9533 53.516 99.8642 53.5094 99.7568 53.446C99.6507 53.3834 99.6067 53.3126 99.603 53.3061L102.215 51.8299C101.746 51.0006 100.94 50.516 99.9728 50.516V53.516ZM99.5927 53.2877L103.097 59.6957L105.729 58.2563L102.225 51.8483L99.5927 53.2877ZM104.413 60.476H106.621V57.476H104.413V60.476ZM107.095 57.553L106.591 57.385L105.642 60.231L106.146 60.399L107.095 57.553ZM127.669 42.2L129.164 42.0783L129.052 40.7H127.669V42.2ZM117.325 42.2V40.7L116.798 43.6045L117.325 42.2ZM117.709 42.344L118.28 40.957L118.258 40.9479L118.236 40.9395L117.709 42.344ZM118.357 42.872L117.109 43.704L117.128 43.732L117.147 43.759L118.357 42.872ZM118.357 58.304L117.147 57.417L117.128 57.444L117.109 57.4719L118.357 58.304ZM117.709 58.832L118.236 60.2365L118.258 60.2281L118.28 60.219L117.709 58.832ZM117.325 58.976L116.798 57.5715L117.325 60.476V58.976ZM121.237 58.976V60.476L121.764 57.5715L121.237 58.976ZM120.853 58.832L120.282 60.219L120.304 60.2281L120.326 60.2365L120.853 58.832ZM120.181 58.304L118.933 59.1361L118.952 59.164L118.971 59.191L120.181 58.304ZM119.941 50.504V49.004H118.441V50.504H119.941ZM124.717 50.744L123.845 51.9646L123.894 51.9994L123.945 52.0302L124.717 50.744ZM125.269 51.344L126.648 50.7531L126.63 50.7126L126.611 50.6732L125.269 51.344ZM125.413 51.68L124.034 52.2709L126.913 51.68H125.413ZM125.413 48.8H126.913L124.034 48.2091L125.413 48.8ZM125.269 49.136L126.611 49.8068L126.63 49.7674L126.648 49.7269L125.269 49.136ZM124.717 49.76L125.528 51.0218L125.539 51.015L125.549 51.0081L124.717 49.76ZM119.941 49.976H118.441V51.476H119.941V49.976ZM119.941 42.848V41.348H118.441V42.848H119.941ZM126.949 43.064L126.095 44.2973L126.148 44.3342L126.205 44.3664L126.949 43.064ZM127.477 43.592L128.799 42.8837L128.79 42.8656L128.779 42.8478L127.477 43.592ZM127.837 44.264L126.515 44.9723L129.332 44.1423L127.837 44.264ZM127.669 40.7H117.325V43.7H127.669V40.7ZM116.798 43.6045L117.182 43.7485L118.236 40.9395L117.852 40.7955L116.798 43.6045ZM117.138 43.731C117.142 43.7329 117.143 43.7334 117.14 43.7318C117.137 43.7302 117.133 43.7272 117.127 43.7229C117.122 43.7185 117.117 43.7139 117.114 43.7098C117.11 43.7057 117.109 43.7034 117.109 43.704L119.605 42.0399C119.276 41.5466 118.822 41.1802 118.28 40.957L117.138 43.731ZM117.147 43.759C117.145 43.7552 117.135 43.7404 117.128 43.7177C117.121 43.6954 117.121 43.6828 117.121 43.688H120.121C120.121 43.0723 119.936 42.4881 119.567 41.985L117.147 43.759ZM117.121 43.688V57.488H120.121V43.688H117.121ZM117.121 57.488C117.121 57.4932 117.121 57.4806 117.128 57.4583C117.135 57.4356 117.145 57.4208 117.147 57.417L119.567 59.191C119.936 58.6879 120.121 58.1037 120.121 57.488H117.121ZM117.109 57.4719C117.109 57.4725 117.11 57.4703 117.114 57.4662C117.117 57.4621 117.122 57.4575 117.127 57.4531C117.133 57.4488 117.137 57.4458 117.14 57.4442C117.143 57.4426 117.142 57.4431 117.138 57.445L118.28 60.219C118.822 59.9958 119.276 59.6294 119.605 59.1361L117.109 57.4719ZM117.182 57.4275L116.798 57.5715L117.852 60.3805L118.236 60.2365L117.182 57.4275ZM117.325 60.476H121.237V57.476H117.325V60.476ZM121.764 57.5715L121.38 57.4275L120.326 60.2365L120.71 60.3805L121.764 57.5715ZM121.424 57.445C121.417 57.4421 121.413 57.4399 121.411 57.4388C121.409 57.4377 121.408 57.437 121.408 57.4365C121.408 57.4364 121.402 57.432 121.391 57.417L118.971 59.191C119.308 59.6504 119.752 60.0008 120.282 60.219L121.424 57.445ZM121.429 57.4719C121.43 57.473 121.432 57.4762 121.434 57.4813C121.437 57.4865 121.439 57.4919 121.44 57.4968C121.441 57.5016 121.442 57.5042 121.442 57.5036C121.442 57.503 121.441 57.4981 121.441 57.488H118.441C118.441 58.0713 118.6 58.636 118.933 59.1361L121.429 57.4719ZM121.441 57.488V50.504H118.441V57.488H121.441ZM119.941 52.004H123.949V49.004H119.941V52.004ZM123.949 52.004C123.952 52.004 123.937 52.0042 123.91 51.9957C123.882 51.987 123.859 51.9746 123.845 51.9646L125.589 49.5234C125.098 49.1729 124.534 49.004 123.949 49.004V52.004ZM123.945 52.0302C123.946 52.0308 123.945 52.0299 123.941 52.0273C123.938 52.0247 123.935 52.0214 123.931 52.0176C123.928 52.0138 123.925 52.0109 123.925 52.0095C123.924 52.0082 123.925 52.0097 123.927 52.0148L126.611 50.6732C126.358 50.1681 125.979 49.752 125.489 49.4578L123.945 52.0302ZM123.89 51.9349L124.034 52.2709L126.792 51.0891L126.648 50.7531L123.89 51.9349ZM126.913 51.68V48.8H123.913V51.68H126.913ZM124.034 48.2091L123.89 48.5451L126.648 49.7269L126.792 49.3909L124.034 48.2091ZM123.927 48.4652C123.917 48.4858 123.91 48.4955 123.885 48.5119L125.549 51.0081C126.004 50.7045 126.365 50.2982 126.611 49.8068L123.927 48.4652ZM123.906 48.4982C123.912 48.4945 123.919 48.4905 123.927 48.4866C123.936 48.4828 123.944 48.4799 123.951 48.478C123.966 48.4739 123.967 48.476 123.949 48.476V51.476C124.5 51.476 125.042 51.334 125.528 51.0218L123.906 48.4982ZM123.949 48.476H119.941V51.476H123.949V48.476ZM121.441 49.976V42.848H118.441V49.976H121.441ZM119.941 44.348H126.229V41.348H119.941V44.348ZM126.229 44.348C126.231 44.348 126.213 44.3481 126.182 44.3387C126.15 44.3291 126.119 44.314 126.095 44.2973L127.803 41.8307C127.325 41.4998 126.782 41.348 126.229 41.348V44.348ZM126.205 44.3664C126.205 44.3666 126.198 44.3623 126.188 44.3527C126.179 44.343 126.174 44.3357 126.175 44.3362L128.779 42.8478C128.518 42.3912 128.15 42.0225 127.693 41.7616L126.205 44.3664ZM126.155 44.3003L126.515 44.9723L129.159 43.5557L128.799 42.8837L126.155 44.3003ZM129.332 44.1423L129.164 42.0783L126.174 42.3217L126.342 44.3857L129.332 44.1423ZM132.688 44.864L131.467 43.9921L131.461 44.0011L131.454 44.0102L132.688 44.864ZM133.288 44.384L132.783 42.9714L132.757 42.9808L132.731 42.9913L133.288 44.384ZM133.624 44.264L134.128 45.6766L133.624 42.764V44.264ZM130.216 44.264V42.764L129.711 45.6766L130.216 44.264ZM130.552 44.384L131.109 42.9913L131.083 42.9808L131.056 42.9714L130.552 44.384ZM131.128 44.864L129.866 45.6751L129.9 45.7284L129.939 45.7786L131.128 44.864ZM131.128 58.424L129.907 57.5521L129.901 57.5611L129.894 57.5702L131.128 58.424ZM130.552 58.88L131.056 60.2926L131.083 60.2832L131.109 60.2727L130.552 58.88ZM130.216 59L129.711 57.5874L130.216 60.5V59ZM133.624 59V60.5L134.128 57.5874L133.624 59ZM133.288 58.88L132.731 60.2727L132.757 60.2832L132.783 60.2926L133.288 58.88ZM132.688 58.424L131.426 59.2351L131.46 59.2884L131.499 59.3386L132.688 58.424ZM133.972 57.68V45.584H130.972V57.68H133.972ZM133.972 45.584C133.972 45.5816 133.972 45.5998 133.962 45.631C133.953 45.6632 133.938 45.6937 133.921 45.7178L131.454 44.0102C131.123 44.4882 130.972 45.031 130.972 45.584H133.972ZM133.908 45.7359C133.914 45.7279 133.91 45.7348 133.895 45.7473C133.879 45.7602 133.86 45.7705 133.845 45.7767L132.731 42.9913C132.207 43.2009 131.782 43.5505 131.467 43.9921L133.908 45.7359ZM133.792 45.7966L134.128 45.6766L133.119 42.8514L132.783 42.9714L133.792 45.7966ZM133.624 42.764H130.216V45.764H133.624V42.764ZM129.711 45.6766L130.047 45.7966L131.056 42.9714L130.72 42.8514L129.711 45.6766ZM129.995 45.7767C129.973 45.7683 129.944 45.7526 129.915 45.7283C129.887 45.7044 129.871 45.6831 129.866 45.6751L132.389 44.0529C132.082 43.5749 131.648 43.2068 131.109 42.9913L129.995 45.7767ZM129.939 45.7786C129.92 45.7549 129.899 45.719 129.885 45.6743C129.87 45.6303 129.868 45.5971 129.868 45.584H132.868C132.868 44.9942 132.686 44.4298 132.317 43.9494L129.939 45.7786ZM129.868 45.584V57.68H132.868V45.584H129.868ZM129.868 57.68C129.868 57.6666 129.87 57.6407 129.88 57.6095C129.89 57.5785 129.902 57.5587 129.907 57.5521L132.348 59.2959C132.688 58.8207 132.868 58.2686 132.868 57.68H129.868ZM129.894 57.5702C129.904 57.5565 129.921 57.5369 129.945 57.5179C129.968 57.4992 129.988 57.4901 129.995 57.4873L131.109 60.2727C131.616 60.0699 132.045 59.7335 132.361 59.2778L129.894 57.5702ZM130.047 57.4674L129.711 57.5874L130.72 60.4126L131.056 60.2926L130.047 57.4674ZM130.216 60.5H133.624V57.5H130.216V60.5ZM134.128 57.5874L133.792 57.4674L132.783 60.2926L133.119 60.4126L134.128 57.5874ZM133.845 57.4873C133.845 57.4874 133.847 57.4884 133.852 57.4908C133.856 57.4931 133.861 57.4962 133.865 57.4998C133.87 57.5033 133.873 57.5065 133.876 57.5088C133.878 57.5111 133.878 57.5116 133.877 57.5094L131.499 59.3386C131.82 59.7563 132.237 60.0753 132.731 60.2727L133.845 57.4873ZM133.949 57.6129C133.953 57.6187 133.961 57.6326 133.966 57.6518C133.972 57.6708 133.972 57.682 133.972 57.68H130.972C130.972 58.2331 131.123 58.7638 131.426 59.2351L133.949 57.6129ZM146.564 44.288L146.59 42.7882L145.93 45.6473L146.564 44.288ZM146.924 44.456L147.595 43.1144L147.577 43.1053L147.558 43.0967L146.924 44.456ZM147.452 44.936L146.175 45.7221L146.196 45.7566L146.219 45.7898L147.452 44.936ZM147.668 56.456L146.489 57.3833L149.168 60.7893V56.456H147.668ZM138.116 44.312L139.295 43.3846L138.845 42.812H138.116V44.312ZM136.028 44.312V42.812L135.394 45.6713L136.028 44.312ZM136.388 44.48L137.059 43.1384L137.041 43.1293L137.022 43.1207L136.388 44.48ZM136.916 44.96L135.639 45.7461L135.66 45.7806L135.683 45.8138L136.916 44.96ZM136.916 58.4L135.683 57.5462L135.66 57.5794L135.639 57.6139L136.916 58.4ZM136.388 58.88L137.022 60.2393L137.041 60.2307L137.059 60.2216L136.388 58.88ZM136.028 59.048L135.394 57.6887L136.028 60.548V59.048ZM138.812 59.048V60.548L139.446 57.6887L138.812 59.048ZM138.452 58.88L137.781 60.2216L137.799 60.2307L137.818 60.2393L138.452 58.88ZM137.9 58.4L136.623 59.1861L136.644 59.2206L136.667 59.2538L137.9 58.4ZM137.708 45.632L138.888 44.7055L136.208 41.2934V45.632H137.708ZM148.244 59.048L147.064 59.9745L149.744 63.3866V59.048H148.244ZM148.436 44.984L147.203 44.1302L147.18 44.1634L147.159 44.1979L148.436 44.984ZM148.988 44.504L148.354 43.1447L148.335 43.1533L148.317 43.1624L148.988 44.504ZM149.348 44.336L149.982 45.6953L149.374 42.8362L149.348 44.336ZM145.93 45.6473L146.29 45.8153L147.558 43.0967L147.198 42.9287L145.93 45.6473ZM146.253 45.7976C146.249 45.7955 146.234 45.787 146.215 45.7699C146.196 45.7526 146.182 45.7349 146.175 45.7221L148.73 44.1499C148.451 43.6975 148.062 43.348 147.595 43.1144L146.253 45.7976ZM146.219 45.7898C146.213 45.7816 146.198 45.7576 146.186 45.719C146.173 45.6797 146.168 45.6407 146.168 45.608H149.168C149.168 45.0459 148.993 44.5267 148.685 44.0822L146.219 45.7898ZM146.168 45.608V56.456H149.168V45.608H146.168ZM148.847 55.5287L139.295 43.3846L136.937 45.2393L146.489 57.3833L148.847 55.5287ZM138.116 42.812H136.028V45.812H138.116V42.812ZM135.394 45.6713L135.754 45.8393L137.022 43.1207L136.662 42.9527L135.394 45.6713ZM135.717 45.8216C135.713 45.8195 135.698 45.811 135.679 45.7939C135.66 45.7766 135.646 45.7589 135.639 45.7461L138.194 44.1739C137.915 43.7215 137.526 43.372 137.059 43.1384L135.717 45.8216ZM135.683 45.8138C135.677 45.8056 135.662 45.7816 135.65 45.743C135.637 45.7037 135.632 45.6646 135.632 45.632H138.632C138.632 45.0699 138.457 44.5507 138.149 44.1062L135.683 45.8138ZM135.632 45.632V57.728H138.632V45.632H135.632ZM135.632 57.728C135.632 57.6953 135.637 57.6563 135.65 57.617C135.662 57.5784 135.677 57.5544 135.683 57.5462L138.149 59.2538C138.457 58.8093 138.632 58.2901 138.632 57.728H135.632ZM135.639 57.6139C135.646 57.6011 135.66 57.5834 135.679 57.5661C135.698 57.549 135.713 57.5405 135.717 57.5384L137.059 60.2216C137.526 59.988 137.915 59.6385 138.194 59.1861L135.639 57.6139ZM135.754 57.5207L135.394 57.6887L136.662 60.4073L137.022 60.2393L135.754 57.5207ZM136.028 60.548H138.812V57.548H136.028V60.548ZM139.446 57.6887L139.086 57.5207L137.818 60.2393L138.178 60.4073L139.446 57.6887ZM139.123 57.5384C139.121 57.5376 139.122 57.5377 139.124 57.5389C139.126 57.5402 139.128 57.5419 139.13 57.5441C139.133 57.5462 139.135 57.548 139.135 57.5489C139.136 57.5498 139.135 57.5492 139.133 57.5462L136.667 59.2538C136.953 59.6669 137.329 59.9957 137.781 60.2216L139.123 57.5384ZM139.178 57.6139C139.182 57.6208 139.191 57.6381 139.198 57.6639C139.206 57.6899 139.208 57.7129 139.208 57.728H136.208C136.208 58.2507 136.352 58.7461 136.623 59.1861L139.178 57.6139ZM139.208 57.728V45.632H136.208V57.728H139.208ZM136.528 46.5585L147.064 59.9745L149.424 58.1215L138.888 44.7055L136.528 46.5585ZM149.744 59.048V45.656H146.744V59.048H149.744ZM149.744 45.656C149.744 45.6711 149.742 45.6941 149.734 45.7201C149.727 45.7459 149.718 45.7632 149.714 45.7701L147.159 44.1979C146.888 44.6379 146.744 45.1333 146.744 45.656H149.744ZM149.669 45.8378C149.671 45.8348 149.672 45.8342 149.671 45.8351C149.671 45.836 149.669 45.8378 149.666 45.8399C149.664 45.8421 149.662 45.8438 149.66 45.8451C149.658 45.8463 149.657 45.8464 149.659 45.8456L148.317 43.1624C147.865 43.3883 147.489 43.7171 147.203 44.1302L149.669 45.8378ZM149.622 45.8633L149.982 45.6953L148.714 42.9767L148.354 43.1447L149.622 45.8633ZM149.374 42.8362L146.59 42.7882L146.538 45.7878L149.322 45.8358L149.374 42.8362ZM154.011 58.4H152.511V59.9H154.011V58.4ZM154.011 44.888V43.388H152.511V44.888H154.011ZM160.755 45.392L160.153 46.7662L160.166 46.7715L160.178 46.7766L160.755 45.392ZM162.675 46.784L161.527 47.7502L161.534 47.7578L161.54 47.7652L162.675 46.784ZM163.803 48.92L162.361 49.3357L162.366 49.3524L162.371 49.369L163.803 48.92ZM163.803 54.416L162.369 53.9749L162.366 53.9838L162.364 53.9927L163.803 54.416ZM162.675 56.552L163.809 57.5332L163.816 57.5258L163.822 57.5182L162.675 56.552ZM160.755 57.944L161.332 59.3286L161.344 59.3235L161.356 59.3182L160.755 57.944ZM158.019 58.424H156.519V59.924H158.019V58.424ZM158.019 58.4H159.519V56.9H158.019V58.4ZM151.755 44.288V42.788L151.25 45.7006L151.755 44.288ZM152.091 44.408L152.648 43.0153L152.622 43.0048L152.595 42.9954L152.091 44.408ZM152.667 44.888L151.405 45.6991L151.439 45.7524L151.478 45.8026L152.667 44.888ZM152.667 58.448L151.446 57.5761L151.44 57.5851L151.433 57.5942L152.667 58.448ZM152.091 58.904L152.595 60.3166L152.622 60.3072L152.648 60.2967L152.091 58.904ZM151.755 59.024L151.25 57.6114L151.755 60.524V59.024ZM161.307 58.448L160.725 57.0655L160.725 57.0655L161.307 58.448ZM163.563 56.888L162.463 55.8684L162.456 55.8757L162.449 55.8831L163.563 56.888ZM164.883 54.56L163.452 54.1083L163.45 54.1163L163.447 54.1243L164.883 54.56ZM164.883 48.728L163.447 49.1637L163.451 49.1754L163.455 49.187L164.883 48.728ZM163.563 46.4L162.437 47.3915L162.45 47.4058L162.463 47.4196L163.563 46.4ZM155.511 58.4V44.888H152.511V58.4H155.511ZM154.011 46.388H158.019V43.388H154.011V46.388ZM158.019 46.388C158.92 46.388 159.617 46.5317 160.153 46.7662L161.356 44.0178C160.356 43.5803 159.23 43.388 158.019 43.388V46.388ZM160.178 46.7766C160.736 47.0091 161.177 47.3338 161.527 47.7502L163.822 45.8178C163.149 45.0182 162.31 44.4149 161.332 44.0074L160.178 46.7766ZM161.54 47.7652C161.896 48.1764 162.175 48.6898 162.361 49.3357L165.244 48.5043C164.95 47.4862 164.478 46.5756 163.809 45.8028L161.54 47.7652ZM162.371 49.369C162.575 50.0164 162.687 50.7738 162.687 51.656H165.687C165.687 50.5222 165.543 49.4556 165.234 48.471L162.371 49.369ZM162.687 51.656C162.687 52.5375 162.575 53.3063 162.369 53.9749L165.236 54.8571C165.543 53.8617 165.687 52.7905 165.687 51.656H162.687ZM162.364 53.9927C162.178 54.6237 161.896 55.1476 161.527 55.5858L163.822 57.5182C164.477 56.7404 164.947 55.8403 165.242 54.8393L162.364 53.9927ZM161.54 55.5708C161.185 55.9818 160.731 56.3169 160.153 56.5698L161.356 59.3182C162.314 58.8991 163.141 58.3062 163.809 57.5332L161.54 55.5708ZM160.178 56.5594C159.635 56.7857 158.928 56.924 158.019 56.924V59.924C159.221 59.924 160.339 59.7423 161.332 59.3286L160.178 56.5594ZM159.519 58.424V58.4H156.519V58.424H159.519ZM158.019 56.9H154.011V59.9H158.019V56.9ZM151.25 45.7006L151.586 45.8206L152.595 42.9954L152.259 42.8754L151.25 45.7006ZM151.534 45.8007C151.512 45.7923 151.483 45.7765 151.454 45.7523C151.426 45.7284 151.41 45.7071 151.405 45.6991L153.928 44.0769C153.621 43.5989 153.187 43.2308 152.648 43.0153L151.534 45.8007ZM151.478 45.8026C151.46 45.7789 151.439 45.743 151.424 45.6983C151.409 45.6543 151.407 45.6211 151.407 45.608H154.407C154.407 45.0182 154.225 44.4538 153.856 43.9734L151.478 45.8026ZM151.407 45.608V57.704H154.407V45.608H151.407ZM151.407 57.704C151.407 57.6906 151.409 57.6647 151.419 57.6335C151.429 57.6025 151.441 57.5827 151.446 57.5761L153.887 59.3199C154.227 58.8447 154.407 58.2926 154.407 57.704H151.407ZM151.433 57.5942C151.443 57.5805 151.46 57.5609 151.484 57.5419C151.507 57.5232 151.527 57.5141 151.534 57.5113L152.648 60.2967C153.155 60.0939 153.585 59.7575 153.9 59.3018L151.433 57.5942ZM151.586 57.4914L151.25 57.6114L152.259 60.4366L152.595 60.3166L151.586 57.4914ZM151.755 60.524H158.019V57.524H151.755V60.524ZM158.019 60.524C159.443 60.524 160.747 60.3112 161.889 59.8305L160.725 57.0655C160.042 57.3528 159.155 57.524 158.019 57.524V60.524ZM161.889 59.8305C162.979 59.3714 163.92 58.7308 164.676 57.8929L162.449 55.8831C162.021 56.3572 161.458 56.7566 160.725 57.0655L161.889 59.8305ZM164.663 57.9076C165.433 57.0771 165.983 56.0988 166.318 54.9957L163.447 54.1243C163.238 54.8132 162.909 55.3869 162.463 55.8684L164.663 57.9076ZM166.313 55.0117C166.65 53.9436 166.815 52.8224 166.815 51.656H163.815C163.815 52.5376 163.691 53.3524 163.452 54.1083L166.313 55.0117ZM166.815 51.656C166.815 50.463 166.652 49.3302 166.311 48.269L163.455 49.187C163.69 49.9178 163.815 50.737 163.815 51.656H166.815ZM166.318 48.2923C165.983 47.1892 165.433 46.2109 164.663 45.3804L162.463 47.4196C162.909 47.9011 163.238 48.4748 163.447 49.1637L166.318 48.2923ZM164.688 45.4085C163.927 44.5445 162.975 43.8957 161.868 43.449L160.745 46.231C161.462 46.5203 162.014 46.9115 162.437 47.3915L164.688 45.4085ZM161.868 43.449C160.733 42.9909 159.436 42.788 158.019 42.788V45.788C159.162 45.788 160.057 45.9531 160.745 46.231L161.868 43.449ZM158.019 42.788H151.755V45.788H158.019V42.788ZM177.196 57.536L178.433 58.3843L178.455 58.3512L178.476 58.3169L177.196 57.536ZM169.948 58.376H168.448V59.876H169.948V58.376ZM169.948 51.56V50.06H168.448V51.56H169.948ZM174.172 51.776L173.318 53.0093L173.351 53.0323L173.385 53.0535L174.172 51.776ZM174.652 52.304L173.31 52.9748L173.31 52.9748L174.652 52.304ZM174.796 52.592L173.454 53.2628L176.296 52.592H174.796ZM174.796 50.072H176.296L173.454 49.4012L174.796 50.072ZM174.652 50.36L173.31 49.6892L173.31 49.6892L174.652 50.36ZM174.172 50.912L174.958 52.1895L174.992 52.1683L175.025 52.1453L174.172 50.912ZM169.948 51.104H168.448V52.604H169.948V51.104ZM169.948 44.864V43.364H168.448V44.864H169.948ZM176.068 45.056L175.236 46.3041L175.294 46.3432L175.356 46.3767L176.068 45.056ZM176.548 45.536L175.227 46.2472L175.229 46.2504L176.548 45.536ZM176.86 46.112L175.541 46.8264L178.356 46.0148L176.86 46.112ZM176.74 44.264L178.236 44.1668L178.145 42.764H176.74V44.264ZM167.668 44.264V42.764L167.163 45.6766L167.668 44.264ZM168.004 44.384L168.561 42.9913L168.535 42.9808L168.508 42.9714L168.004 44.384ZM168.58 44.864L167.318 45.6751L167.352 45.7284L167.391 45.7786L168.58 44.864ZM168.58 58.424L167.359 57.5521L167.353 57.5611L167.346 57.5702L168.58 58.424ZM168.004 58.88L168.508 60.2926L168.535 60.2832L168.561 60.2727L168.004 58.88ZM167.668 59L167.163 57.5874L167.668 60.5V59ZM177.124 59V60.5H178.267L178.57 59.3971L177.124 59ZM177.796 56.552L179.242 56.9491L176.515 55.7711L177.796 56.552ZM175.959 56.6877C175.888 56.7905 175.836 56.8235 175.811 56.8365C175.785 56.8499 175.723 56.876 175.588 56.876V59.876C176.762 59.876 177.765 59.3586 178.433 58.3843L175.959 56.6877ZM175.588 56.876H169.948V59.876H175.588V56.876ZM171.448 58.376V51.56H168.448V58.376H171.448ZM169.948 53.06H173.476V50.06H169.948V53.06ZM173.476 53.06C173.461 53.06 173.433 53.0576 173.397 53.0466C173.361 53.0355 173.334 53.0205 173.318 53.0093L175.025 50.5427C174.563 50.2228 174.033 50.06 173.476 50.06V53.06ZM173.385 53.0535C173.373 53.0456 173.355 53.032 173.338 53.013C173.321 52.9942 173.312 52.9791 173.31 52.9748L175.993 51.6332C175.76 51.1658 175.41 50.7769 174.958 50.4985L173.385 53.0535ZM173.31 52.9748L173.454 53.2628L176.137 51.9212L175.993 51.6332L173.31 52.9748ZM176.296 52.592V50.072H173.296V52.592H176.296ZM173.454 49.4012L173.31 49.6892L175.993 51.0308L176.137 50.7428L173.454 49.4012ZM173.31 49.6892C173.309 49.6907 173.309 49.6903 173.311 49.6884C173.312 49.6866 173.314 49.6842 173.316 49.6817C173.318 49.6793 173.32 49.6776 173.321 49.6767C173.321 49.6759 173.321 49.6767 173.318 49.6787L175.025 52.1453C175.439 51.8593 175.767 51.4827 175.993 51.0308L173.31 49.6892ZM173.385 49.6345C173.4 49.6255 173.42 49.6162 173.443 49.61C173.465 49.604 173.477 49.604 173.476 49.604V52.604C173.995 52.604 174.502 52.4701 174.958 52.1895L173.385 49.6345ZM173.476 49.604H169.948V52.604H173.476V49.604ZM171.448 51.104V44.864H168.448V51.104H171.448ZM169.948 46.364H175.444V43.364H169.948V46.364ZM175.444 46.364C175.411 46.364 175.37 46.3589 175.326 46.3457C175.284 46.3325 175.253 46.3157 175.236 46.3041L176.9 43.8079C176.469 43.5209 175.973 43.364 175.444 43.364V46.364ZM175.356 46.3767C175.338 46.3666 175.311 46.3484 175.283 46.3207C175.255 46.293 175.237 46.266 175.227 46.2472L177.868 44.8248C177.617 44.3584 177.245 43.9865 176.779 43.7353L175.356 46.3767ZM175.229 46.2504L175.541 46.8264L178.179 45.3976L177.867 44.8216L175.229 46.2504ZM178.356 46.0148L178.236 44.1668L175.243 44.3612L175.363 46.2092L178.356 46.0148ZM176.74 42.764H167.668V45.764H176.74V42.764ZM167.163 45.6766L167.499 45.7966L168.508 42.9714L168.172 42.8514L167.163 45.6766ZM167.447 45.7767C167.425 45.7683 167.396 45.7526 167.367 45.7283C167.339 45.7044 167.323 45.6831 167.318 45.6751L169.841 44.0529C169.534 43.5749 169.1 43.2068 168.561 42.9913L167.447 45.7767ZM167.391 45.7786C167.372 45.7549 167.351 45.719 167.337 45.6743C167.322 45.6303 167.32 45.5971 167.32 45.584H170.32C170.32 44.9942 170.138 44.4298 169.769 43.9494L167.391 45.7786ZM167.32 45.584V57.68H170.32V45.584H167.32ZM167.32 57.68C167.32 57.6666 167.322 57.6407 167.332 57.6095C167.342 57.5785 167.354 57.5587 167.359 57.5521L169.8 59.2959C170.14 58.8207 170.32 58.2686 170.32 57.68H167.32ZM167.346 57.5702C167.356 57.5565 167.373 57.5369 167.397 57.5179C167.42 57.4992 167.44 57.4901 167.447 57.4873L168.561 60.2727C169.068 60.0699 169.497 59.7335 169.813 59.2778L167.346 57.5702ZM167.499 57.4674L167.163 57.5874L168.172 60.4126L168.508 60.2926L167.499 57.4674ZM167.668 60.5H177.124V57.5H167.668V60.5ZM178.57 59.3971L179.242 56.9491L176.349 56.1549L175.677 58.6029L178.57 59.3971ZM176.515 55.7711L175.915 56.7551L178.476 58.3169L179.076 57.3329L176.515 55.7711ZM182.487 51.392H180.987V52.892H182.487V51.392ZM182.487 44.864V43.364H180.987V44.864H182.487ZM188.271 45.464L187.451 46.7204L187.471 46.7332L187.491 46.7453L188.271 45.464ZM189.159 46.448L187.827 47.1385L187.832 47.1489L187.838 47.1591L189.159 46.448ZM189.159 49.832L190.479 50.5431L190.485 50.5329L190.49 50.5225L189.159 49.832ZM188.271 50.816L189.051 52.0973L189.071 52.0852L189.09 52.0724L188.271 50.816ZM186.999 51.272L186.752 49.7924L186.752 49.7924L186.999 51.272ZM192.039 58.808L191.49 60.2041L191.527 60.2186L191.564 60.231L192.039 58.808ZM191.031 57.92L192.351 57.2089L192.348 57.2025L192.344 57.1961L191.031 57.92ZM189.807 55.664L188.479 56.3626L188.483 56.3699L189.807 55.664ZM189.303 54.728L187.988 55.4509L187.988 55.4509L189.303 54.728ZM188.799 53.792L187.471 54.4906L187.471 54.4906L188.799 53.792ZM188.343 52.952L187.035 53.6874L187.035 53.6874L188.343 52.952ZM187.983 52.304L186.59 52.8611L186.623 52.9439L186.666 53.0223L187.983 52.304ZM187.815 52.04L186.594 52.9119L186.627 52.9573L186.662 53.0003L187.815 52.04ZM187.527 51.824L187.262 50.3476L187.115 53.2663L187.527 51.824ZM189.063 51.296L189.834 52.5822L189.834 52.5822L189.063 51.296ZM189.999 50.456L188.778 49.5841L188.774 49.59L188.77 49.5958L189.999 50.456ZM190.479 49.376L189.02 49.0259L189.015 49.0479L189.01 49.0701L190.479 49.376ZM190.407 46.64L188.97 47.071L188.972 47.0778L188.974 47.0846L190.407 46.64ZM189.615 45.392L188.578 46.476L188.589 46.487L188.601 46.4977L189.615 45.392ZM188.079 44.576L187.625 46.0058L187.641 46.0109L187.657 46.0156L188.079 44.576ZM180.255 44.264V42.764L179.75 45.6766L180.255 44.264ZM180.591 44.384L181.148 42.9913L181.122 42.9808L181.095 42.9714L180.591 44.384ZM181.167 44.864L179.905 45.6751L179.939 45.7284L179.978 45.7786L181.167 44.864ZM181.167 58.424L179.946 57.5521L179.94 57.5611L179.933 57.5702L181.167 58.424ZM180.591 58.88L181.095 60.2926L181.122 60.2832L181.148 60.2727L180.591 58.88ZM180.255 59L179.75 57.5874L180.255 60.5V59ZM183.663 59V60.5L184.167 57.5874L183.663 59ZM183.327 58.88L182.77 60.2727L182.796 60.2832L182.822 60.2926L183.327 58.88ZM182.727 58.424L181.465 59.2351L181.499 59.2884L181.538 59.3386L182.727 58.424ZM182.511 52.016V50.516H181.011V52.016H182.511ZM186.831 52.568L188.147 51.8483L188.142 51.8391L188.137 51.8299L186.831 52.568ZM190.335 58.976L189.019 59.6957L189.445 60.476H190.335V58.976ZM192.543 58.976V60.476L193.017 57.553L192.543 58.976ZM183.987 51.392V44.864H180.987V51.392H183.987ZM182.487 46.364H185.511V43.364H182.487V46.364ZM185.511 46.364C185.944 46.364 186.358 46.3979 186.752 46.4636L187.245 43.5044C186.68 43.4101 186.101 43.364 185.511 43.364V46.364ZM186.752 46.4636C187.05 46.5132 187.275 46.6052 187.451 46.7204L189.09 44.2076C188.531 43.8428 187.907 43.6148 187.245 43.5044L186.752 46.4636ZM187.491 46.7453C187.595 46.8087 187.713 46.9179 187.827 47.1385L190.49 45.7575C190.157 45.1141 189.682 44.5673 189.051 44.1827L187.491 46.7453ZM187.838 47.1591C187.901 47.2754 187.995 47.56 187.995 48.128H190.995C190.995 47.288 190.865 46.4526 190.479 45.7369L187.838 47.1591ZM187.995 48.128C187.995 48.6916 187.902 48.9967 187.827 49.1415L190.49 50.5225C190.863 49.8033 190.995 48.9724 190.995 48.128H187.995ZM187.838 49.1208C187.724 49.3332 187.594 49.4668 187.451 49.5596L189.09 52.0724C189.684 51.6852 190.146 51.1628 190.479 50.5431L187.838 49.1208ZM187.491 49.5347C187.306 49.6471 187.068 49.7398 186.752 49.7924L187.245 52.7516C187.89 52.6442 188.499 52.4329 189.051 52.0973L187.491 49.5347ZM186.752 49.7924C186.358 49.8581 185.944 49.892 185.511 49.892V52.892C186.101 52.892 186.68 52.8459 187.245 52.7516L186.752 49.7924ZM185.511 49.892H182.487V52.892H185.511V49.892ZM192.587 57.4119C192.463 57.363 192.404 57.306 192.351 57.2089L189.71 58.6311C190.106 59.366 190.719 59.901 191.49 60.2041L192.587 57.4119ZM192.344 57.1961C191.915 56.4175 191.511 55.6715 191.13 54.9581L188.483 56.3699C188.871 57.0965 189.282 57.8545 189.717 58.6439L192.344 57.1961ZM191.134 54.9654C190.97 54.6528 190.797 54.3327 190.617 54.0051L187.988 55.4509C188.16 55.7633 188.324 56.0672 188.479 56.3626L191.134 54.9654ZM190.617 54.0051C190.445 53.6927 190.282 53.3888 190.126 53.0934L187.471 54.4906C187.636 54.8032 187.808 55.1233 187.988 55.4509L190.617 54.0051ZM190.126 53.0934C189.961 52.779 189.802 52.4866 189.65 52.2166L187.035 53.6874C187.171 53.9294 187.317 54.197 187.471 54.4906L190.126 53.0934ZM189.65 52.2166C189.508 51.9639 189.391 51.754 189.3 51.5857L186.666 53.0223C186.766 53.206 186.889 53.4281 187.035 53.6874L189.65 52.2166ZM189.375 51.7469C189.265 51.471 189.107 51.2472 188.967 51.0797L186.662 53.0003C186.669 53.0084 186.664 53.0027 186.651 52.9833C186.639 52.9645 186.615 52.9234 186.59 52.8611L189.375 51.7469ZM189.035 51.1681C188.795 50.8322 188.434 50.5232 187.939 50.3817L187.115 53.2663C186.844 53.1888 186.674 53.0238 186.594 52.9119L189.035 51.1681ZM187.792 53.3004C188.535 53.1671 189.233 52.9428 189.834 52.5822L188.291 50.0098C188.092 50.1292 187.767 50.2569 187.262 50.3476L187.792 53.3004ZM189.834 52.5822C190.381 52.2546 190.862 51.8389 191.228 51.3162L188.77 49.5958C188.688 49.7131 188.545 49.8574 188.291 50.0098L189.834 52.5822ZM191.219 51.3279C191.574 50.8316 191.822 50.2804 191.947 49.6819L189.01 49.0701C188.975 49.2396 188.904 49.4084 188.778 49.5841L191.219 51.3279ZM191.937 49.7261C192.062 49.2058 192.123 48.672 192.123 48.128H189.123C189.123 48.448 189.087 48.7462 189.02 49.0259L191.937 49.7261ZM192.123 48.128C192.123 47.4623 192.032 46.8153 191.839 46.1954L188.974 47.0846C189.07 47.3927 189.123 47.7377 189.123 48.128H192.123ZM191.843 46.209C191.619 45.4596 191.203 44.8134 190.628 44.2863L188.601 46.4977C188.794 46.6746 188.907 46.8604 188.97 47.071L191.843 46.209ZM190.652 44.308C190.061 43.7429 189.311 43.3738 188.5 43.1364L187.657 46.0156C188.158 46.1622 188.433 46.3371 188.578 46.476L190.652 44.308ZM188.532 43.1462C187.675 42.8744 186.658 42.764 185.535 42.764V45.764C186.491 45.764 187.171 45.8616 187.625 46.0058L188.532 43.1462ZM185.535 42.764H180.255V45.764H185.535V42.764ZM179.75 45.6766L180.086 45.7966L181.095 42.9714L180.759 42.8514L179.75 45.6766ZM180.034 45.7767C180.012 45.7683 179.983 45.7526 179.954 45.7283C179.926 45.7044 179.91 45.6831 179.905 45.6751L182.428 44.0529C182.121 43.5749 181.687 43.2068 181.148 42.9913L180.034 45.7767ZM179.978 45.7786C179.96 45.7549 179.939 45.719 179.924 45.6743C179.909 45.6303 179.907 45.5971 179.907 45.584H182.907C182.907 44.9942 182.725 44.4298 182.356 43.9494L179.978 45.7786ZM179.907 45.584V57.68H182.907V45.584H179.907ZM179.907 57.68C179.907 57.6666 179.909 57.6407 179.919 57.6095C179.929 57.5785 179.941 57.5587 179.946 57.5521L182.387 59.2959C182.727 58.8207 182.907 58.2686 182.907 57.68H179.907ZM179.933 57.5702C179.943 57.5565 179.96 57.5369 179.984 57.5179C180.007 57.4992 180.027 57.4901 180.034 57.4873L181.148 60.2727C181.655 60.0699 182.085 59.7335 182.4 59.2778L179.933 57.5702ZM180.086 57.4674L179.75 57.5874L180.759 60.4126L181.095 60.2926L180.086 57.4674ZM180.255 60.5H183.663V57.5H180.255V60.5ZM184.167 57.5874L183.831 57.4674L182.822 60.2926L183.158 60.4126L184.167 57.5874ZM183.884 57.4873C183.884 57.4874 183.887 57.4884 183.891 57.4908C183.895 57.4931 183.9 57.4962 183.904 57.4998C183.909 57.5033 183.913 57.5065 183.915 57.5088C183.917 57.5111 183.917 57.5116 183.916 57.5094L181.538 59.3386C181.859 59.7563 182.276 60.0753 182.77 60.2727L183.884 57.4873ZM183.988 57.6129C183.992 57.6187 184 57.6326 184.005 57.6518C184.011 57.6708 184.011 57.682 184.011 57.68H181.011C181.011 58.2331 181.162 58.7638 181.465 59.2351L183.988 57.6129ZM184.011 57.68V52.016H181.011V57.68H184.011ZM182.511 53.516H185.895V50.516H182.511V53.516ZM185.895 53.516C185.875 53.516 185.786 53.5094 185.679 53.446C185.573 53.3834 185.529 53.3126 185.525 53.3061L188.137 51.8299C187.668 51.0006 186.862 50.516 185.895 50.516V53.516ZM185.515 53.2877L189.019 59.6957L191.651 58.2563L188.147 51.8483L185.515 53.2877ZM190.335 60.476H192.543V57.476H190.335V60.476ZM193.017 57.553L192.513 57.385L191.564 60.231L192.068 60.399L193.017 57.553Z" fill="white"/>
<path d="M32.8643 31.1818L42.4175 2L52.476 31.1818L90 37H47.6534L42.2797 20.4545L37.1357 37H19.6367L33.6451 47.2727L28.6848 63.5455L42.2797 53.4091L68.5971 76.2273L64 59.5L79.1148 90L42.2797 60.5909L17.3862 78.4546L26.618 49.3182L2 31.1818H32.8643Z" fill="#F27240" stroke="#323C60"/>
</svg>
