<svg width="21" height="21" viewBox="0 0 21 21" fill="none" xmlns="http://www.w3.org/2000/svg">
<path d="M20.5 8.5V16.5H18.5V8.5H20.5ZM18.5 18.5V20.5H20.5V18.5H18.5ZM16.5 15.79C15.7498 16.642 14.8267 17.3244 13.7921 17.7917C12.7575 18.259 11.6352 18.5005 10.5 18.5C6.09 18.5 2.5 14.91 2.5 10.5C2.5 6.09 6.09 2.5 10.5 2.5V11.5L18.05 3.95C17.1135 2.86608 15.9542 1.9968 14.6513 1.40144C13.3484 0.806073 11.9325 0.49861 10.5 0.500005C4.98 0.500005 0.5 4.98 0.5 10.5C0.5 16.02 4.98 20.5 10.5 20.5C12.75 20.5 14.83 19.76 16.5 18.5V15.79Z" fill="black"/>
</svg>
