<svg width="166" height="49" viewBox="0 0 166 49" fill="none" xmlns="http://www.w3.org/2000/svg">
<path d="M97.8176 10.2622H100.919L111.72 35.5H107.727L105.196 29.2618H93.1835L90.6882 35.5H86.6958L97.8176 10.2622ZM103.949 26.2675L99.2434 14.6824H99.1721L94.3955 26.2675H103.949ZM114.183 18.6035H117.391V21.0275H117.462C118.08 20.1244 118.924 19.4234 119.993 18.9243C121.087 18.4253 122.203 18.1757 123.344 18.1757C124.651 18.1757 125.828 18.4015 126.873 18.853C127.943 19.3045 128.846 19.9343 129.582 20.7423C130.343 21.5503 130.925 22.5009 131.329 23.594C131.733 24.6634 131.935 25.816 131.935 27.0517C131.935 28.3113 131.733 29.4876 131.329 30.5808C130.925 31.6502 130.343 32.5889 129.582 33.3968C128.846 34.1811 127.943 34.7989 126.873 35.2505C125.828 35.702 124.651 35.9278 123.344 35.9278C122.132 35.9278 120.991 35.6782 119.922 35.1792C118.853 34.6564 118.033 33.9553 117.462 33.076H117.391V45.5524H114.183V18.6035ZM122.952 21.1701C122.097 21.1701 121.324 21.3245 120.635 21.6335C119.946 21.9186 119.364 22.3226 118.888 22.8454C118.413 23.3445 118.045 23.9624 117.783 24.6991C117.522 25.412 117.391 26.1962 117.391 27.0517C117.391 27.9073 117.522 28.7034 117.783 29.4401C118.045 30.153 118.413 30.7709 118.888 31.2937C119.364 31.7927 119.946 32.1967 120.635 32.5057C121.324 32.7909 122.097 32.9334 122.952 32.9334C123.808 32.9334 124.58 32.7909 125.269 32.5057C125.958 32.1967 126.54 31.7927 127.016 31.2937C127.491 30.7709 127.859 30.153 128.121 29.4401C128.382 28.7034 128.513 27.9073 128.513 27.0517C128.513 26.1962 128.382 25.412 128.121 24.6991C127.859 23.9624 127.491 23.3445 127.016 22.8454C126.54 22.3226 125.958 21.9186 125.269 21.6335C124.58 21.3245 123.808 21.1701 122.952 21.1701ZM136.224 18.6035H139.432V35.5H136.224V18.6035ZM135.476 12.5436C135.476 11.9019 135.701 11.3553 136.153 10.9038C136.628 10.4285 137.187 10.1909 137.828 10.1909C138.47 10.1909 139.017 10.4285 139.468 10.9038C139.943 11.3553 140.181 11.9019 140.181 12.5436C140.181 13.1852 139.943 13.7437 139.468 14.219C139.017 14.6705 138.47 14.8962 137.828 14.8962C137.187 14.8962 136.628 14.6705 136.153 14.219C135.701 13.7437 135.476 13.1852 135.476 12.5436Z" fill="white"/>
<path d="M0.411246 35.3398L11.613 10.2076H17.3575L28.5952 35.3398H22.4917L13.3005 13.1517H15.5983L6.37117 35.3398H0.411246ZM6.01214 29.9544L7.55598 25.5383H20.4811L22.0609 29.9544H6.01214Z" fill="#F05D23"/>
<path d="M72.8235 35.838C70.6215 35.838 68.6827 35.4072 67.0072 34.5455C65.3557 33.6838 64.0751 32.511 63.1656 31.027C62.256 29.519 61.8012 27.8077 61.8012 25.8928C61.8012 23.9541 62.2441 22.2427 63.1297 20.7587C64.0392 19.2507 65.2719 18.0779 66.8277 17.2402C68.3835 16.3785 70.1428 15.9476 72.1055 15.9476C73.9964 15.9476 75.6958 16.3545 77.2037 17.1684C78.7356 17.9582 79.9443 19.1071 80.8299 20.6151C81.7155 22.0991 82.1583 23.8822 82.1583 25.9646C82.1583 26.1801 82.1464 26.4314 82.1224 26.7186C82.0985 26.9819 82.0746 27.2332 82.0506 27.4726H66.3609V24.2054H79.1066L76.9524 25.1748C76.9524 24.1695 76.7489 23.2958 76.342 22.5538C75.9351 21.8118 75.3726 21.2374 74.6546 20.8305C73.9365 20.3996 73.0988 20.1842 72.1414 20.1842C71.1839 20.1842 70.3342 20.3996 69.5922 20.8305C68.8742 21.2374 68.3117 21.8238 67.9048 22.5897C67.4979 23.3317 67.2944 24.2173 67.2944 25.2466V26.1082C67.2944 27.1614 67.5218 28.0949 67.9766 28.9087C68.4553 29.6986 69.1135 30.3089 69.9513 30.7398C70.8129 31.1467 71.8182 31.3501 72.9671 31.3501C73.9964 31.3501 74.8939 31.1945 75.6599 30.8834C76.4497 30.5722 77.1678 30.1055 77.8141 29.4831L80.794 32.7144C79.9084 33.7197 78.7954 34.4976 77.455 35.0481C76.1146 35.5747 74.5708 35.838 72.8235 35.838Z" fill="#F05D23"/>
<path d="M65.2253 35.6206L54.6206 26.1815L48.9332 31.2637L53.809 35.6206H65.2253ZM54.3407 25.9229L64.8571 16.7227H54.2824L48.9332 21.2978L54.3407 25.9229ZM43.5253 25.9229L43.2344 26.1717L43.2455 26.1815L43.5309 25.9277L43.5253 25.9229Z" fill="white"/>
<path d="M32.3203 35.4096L43.2104 25.7167L32.6886 16.5117H43.2632L54.3113 25.9608L43.7366 35.4096H32.3203Z" fill="#F05D23"/>
</svg>
