<svg width="40" height="40" viewBox="0 0 40 40" fill="none" xmlns="http://www.w3.org/2000/svg">
<path d="M7.01756 24.8832C10.4509 28.2999 15.3676 29.3499 19.6842 27.9999L27.5342 35.8332C28.1009 36.4165 29.2176 36.7665 30.0176 36.6499L33.6509 36.1499C34.8509 35.9832 35.9676 34.8499 36.1509 33.6499L36.6509 30.0165C36.7676 29.2165 36.3842 28.0999 35.8342 27.5332L28.0009 19.6999C29.3342 15.3665 28.3009 10.4499 24.8676 7.0332C19.9509 2.11654 11.9676 2.11654 7.03423 7.0332C2.10089 11.9499 2.10089 19.9665 7.01756 24.8832Z" stroke="#091540" stroke-width="1.5" stroke-miterlimit="10" stroke-linecap="round" stroke-linejoin="round"/>
<path opacity="0.4" d="M28.5156 29.1499L24.6823 32.9832" stroke="#091540" stroke-width="1.5" stroke-miterlimit="10" stroke-linecap="round" stroke-linejoin="round"/>
<path opacity="0.4" d="M15.832 18.3335C14.4513 18.3335 13.332 17.2142 13.332 15.8335C13.332 14.4528 14.4513 13.3335 15.832 13.3335C17.2127 13.3335 18.332 14.4528 18.332 15.8335C18.332 17.2142 17.2127 18.3335 15.832 18.3335Z" stroke="#091540" stroke-width="1.5" stroke-linecap="round" stroke-linejoin="round"/>
</svg>
